<?xml version="1.0" encoding="UTF-8" standalone="no"?>
<!DOCTYPE svg PUBLIC "-//W3C//DTD SVG 1.1//EN"
 "http://www.w3.org/Graphics/SVG/1.1/DTD/svg11.dtd">
<!-- Generated by graphviz version 2.43.0 (0)
 -->
<!-- Title: G Pages: 1 -->
<svg width="508pt" height="403pt"
 viewBox="0.00 0.00 508.16 402.65" xmlns="http://www.w3.org/2000/svg" xmlns:xlink="http://www.w3.org/1999/xlink">
<g id="graph0" class="graph" transform="scale(1 1) rotate(0) translate(4 398.65)">
<title>G</title>
<polygon fill="white" stroke="transparent" points="-4,4 -4,-398.65 504.16,-398.65 504.16,4 -4,4"/>
<!-- system.ruby.network.routers00 -->
<g id="node1" class="node">
<title>system.ruby.network.routers00</title>
<path fill="#cce6fc" stroke="#000000" d="M150.98,-197.39C150.98,-197.39 180.98,-197.39 180.98,-197.39 186.98,-197.39 192.98,-203.39 192.98,-209.39 192.98,-209.39 192.98,-221.39 192.98,-221.39 192.98,-227.39 186.98,-233.39 180.98,-233.39 180.98,-233.39 150.98,-233.39 150.98,-233.39 144.98,-233.39 138.98,-227.39 138.98,-221.39 138.98,-221.39 138.98,-209.39 138.98,-209.39 138.98,-203.39 144.98,-197.39 150.98,-197.39"/>
<text text-anchor="middle" x="165.98" y="-211.69" font-family="Arial" font-size="14.00" fill="#000000">R 0</text>
</g>
<!-- system.ruby.network.routers18 -->
<g id="node19" class="node">
<title>system.ruby.network.routers18</title>
<path fill="#cce6fc" stroke="#000000" d="M235.28,-177.38C235.28,-177.38 265.28,-177.38 265.28,-177.38 271.28,-177.38 277.28,-183.38 277.28,-189.38 277.28,-189.38 277.28,-201.38 277.28,-201.38 277.28,-207.38 271.28,-213.38 265.28,-213.38 265.28,-213.38 235.28,-213.38 235.28,-213.38 229.28,-213.38 223.28,-207.38 223.28,-201.38 223.28,-201.38 223.28,-189.38 223.28,-189.38 223.28,-183.38 229.28,-177.38 235.28,-177.38"/>
<text text-anchor="middle" x="250.28" y="-191.68" font-family="Arial" font-size="14.00" fill="#000000">R 18</text>
</g>
<!-- system.ruby.network.routers00&#45;&#45;system.ruby.network.routers18 -->
<g id="edge1" class="edge">
<title>system.ruby.network.routers00&#45;&#45;system.ruby.network.routers18</title>
<path fill="none" stroke="#042d50" d="M193.18,-215.39C199.64,-214.25 206.65,-212.74 213.46,-211.04"/>
<polygon fill="#042d50" stroke="#042d50" points="214.48,-214.39 223.23,-208.41 212.66,-207.63 214.48,-214.39"/>
</g>
<!-- system.ruby.network.routers01 -->
<g id="node2" class="node">
<title>system.ruby.network.routers01</title>
<path fill="#cce6fc" stroke="#000000" d="M164.14,-140.3C164.14,-140.3 194.14,-140.3 194.14,-140.3 200.14,-140.3 206.14,-146.3 206.14,-152.3 206.14,-152.3 206.14,-164.3 206.14,-164.3 206.14,-170.3 200.14,-176.3 194.14,-176.3 194.14,-176.3 164.14,-176.3 164.14,-176.3 158.14,-176.3 152.14,-170.3 152.14,-164.3 152.14,-164.3 152.14,-152.3 152.14,-152.3 152.14,-146.3 158.14,-140.3 164.14,-140.3"/>
<text text-anchor="middle" x="179.14" y="-154.6" font-family="Arial" font-size="14.00" fill="#000000">R 1</text>
</g>
<!-- system.ruby.network.routers01&#45;&#45;system.ruby.network.routers18 -->
<g id="edge2" class="edge">
<title>system.ruby.network.routers01&#45;&#45;system.ruby.network.routers18</title>
<path fill="none" stroke="#042d50" d="M199.87,-176.33C204.27,-178.93 209.04,-181.55 213.84,-183.99"/>
<polygon fill="#042d50" stroke="#042d50" points="212.46,-187.21 222.99,-188.42 215.51,-180.91 212.46,-187.21"/>
</g>
<!-- system.ruby.network.routers02 -->
<g id="node3" class="node">
<title>system.ruby.network.routers02</title>
<path fill="#cce6fc" stroke="#000000" d="M176.84,-114.01C176.84,-114.01 206.84,-114.01 206.84,-114.01 212.84,-114.01 218.84,-120.01 218.84,-126.01 218.84,-126.01 218.84,-138.01 218.84,-138.01 218.84,-144.01 212.84,-150.01 206.84,-150.01 206.84,-150.01 176.84,-150.01 176.84,-150.01 170.84,-150.01 164.84,-144.01 164.84,-138.01 164.84,-138.01 164.84,-126.01 164.84,-126.01 164.84,-120.01 170.84,-114.01 176.84,-114.01"/>
<text text-anchor="middle" x="191.84" y="-128.31" font-family="Arial" font-size="14.00" fill="#000000">R 2</text>
</g>
<!-- system.ruby.network.routers02&#45;&#45;system.ruby.network.routers18 -->
<g id="edge3" class="edge">
<title>system.ruby.network.routers02&#45;&#45;system.ruby.network.routers18</title>
<path fill="none" stroke="#042d50" d="M200.86,-150.3C205.48,-156.34 211.31,-163.16 217.36,-169.64"/>
<polygon fill="#042d50" stroke="#042d50" points="215.03,-172.26 224.49,-177.02 220.06,-167.4 215.03,-172.26"/>
</g>
<!-- system.ruby.network.routers03 -->
<g id="node4" class="node">
<title>system.ruby.network.routers03</title>
<path fill="#cce6fc" stroke="#000000" d="M266.59,-254.8C266.59,-254.8 296.59,-254.8 296.59,-254.8 302.59,-254.8 308.59,-260.8 308.59,-266.8 308.59,-266.8 308.59,-278.8 308.59,-278.8 308.59,-284.8 302.59,-290.8 296.59,-290.8 296.59,-290.8 266.59,-290.8 266.59,-290.8 260.59,-290.8 254.59,-284.8 254.59,-278.8 254.59,-278.8 254.59,-266.8 254.59,-266.8 254.59,-260.8 260.59,-254.8 266.59,-254.8"/>
<text text-anchor="middle" x="281.59" y="-269.1" font-family="Arial" font-size="14.00" fill="#000000">R 3</text>
</g>
<!-- system.ruby.network.routers03&#45;&#45;system.ruby.network.routers18 -->
<g id="edge4" class="edge">
<title>system.ruby.network.routers03&#45;&#45;system.ruby.network.routers18</title>
<path fill="none" stroke="#042d50" d="M280.28,-254.67C277.59,-245.18 273.18,-233.4 268.49,-222.83"/>
<polygon fill="#042d50" stroke="#042d50" points="271.56,-221.13 264.14,-213.57 265.22,-224.11 271.56,-221.13"/>
</g>
<!-- system.ruby.network.routers04 -->
<g id="node5" class="node">
<title>system.ruby.network.routers04</title>
<path fill="#cce6fc" stroke="#000000" d="M290.9,-238.84C290.9,-238.84 320.9,-238.84 320.9,-238.84 326.9,-238.84 332.9,-244.84 332.9,-250.84 332.9,-250.84 332.9,-262.84 332.9,-262.84 332.9,-268.84 326.9,-274.84 320.9,-274.84 320.9,-274.84 290.9,-274.84 290.9,-274.84 284.9,-274.84 278.9,-268.84 278.9,-262.84 278.9,-262.84 278.9,-250.84 278.9,-250.84 278.9,-244.84 284.9,-238.84 290.9,-238.84"/>
<text text-anchor="middle" x="305.9" y="-253.14" font-family="Arial" font-size="14.00" fill="#000000">R 4</text>
</g>
<!-- system.ruby.network.routers04&#45;&#45;system.ruby.network.routers18 -->
<g id="edge5" class="edge">
<title>system.ruby.network.routers04&#45;&#45;system.ruby.network.routers18</title>
<path fill="none" stroke="#042d50" d="M297.3,-238.7C293.18,-233.17 288.04,-227.02 282.67,-221.12"/>
<polygon fill="#042d50" stroke="#042d50" points="285.21,-218.71 275.81,-213.83 280.12,-223.51 285.21,-218.71"/>
</g>
<!-- system.ruby.network.routers05 -->
<g id="node6" class="node">
<title>system.ruby.network.routers05</title>
<path fill="#cce6fc" stroke="#000000" d="M176.53,-244.59C176.53,-244.59 206.53,-244.59 206.53,-244.59 212.53,-244.59 218.53,-250.59 218.53,-256.59 218.53,-256.59 218.53,-268.59 218.53,-268.59 218.53,-274.59 212.53,-280.59 206.53,-280.59 206.53,-280.59 176.53,-280.59 176.53,-280.59 170.53,-280.59 164.53,-274.59 164.53,-268.59 164.53,-268.59 164.53,-256.59 164.53,-256.59 164.53,-250.59 170.53,-244.59 176.53,-244.59"/>
<text text-anchor="middle" x="191.53" y="-258.89" font-family="Arial" font-size="14.00" fill="#000000">R 5</text>
</g>
<!-- system.ruby.network.routers05&#45;&#45;system.ruby.network.routers18 -->
<g id="edge6" class="edge">
<title>system.ruby.network.routers05&#45;&#45;system.ruby.network.routers18</title>
<path fill="none" stroke="#042d50" d="M215.91,-244.42C222.5,-237.59 229.4,-229.69 235.32,-222.25"/>
<polygon fill="#042d50" stroke="#042d50" points="238.48,-223.88 241.74,-213.8 232.9,-219.65 238.48,-223.88"/>
</g>
<!-- system.ruby.network.routers06 -->
<g id="node7" class="node">
<title>system.ruby.network.routers06</title>
<path fill="#cce6fc" stroke="#000000" d="M258.28,-91.76C258.28,-91.76 288.28,-91.76 288.28,-91.76 294.28,-91.76 300.28,-97.76 300.28,-103.76 300.28,-103.76 300.28,-115.76 300.28,-115.76 300.28,-121.76 294.28,-127.76 288.28,-127.76 288.28,-127.76 258.28,-127.76 258.28,-127.76 252.28,-127.76 246.28,-121.76 246.28,-115.76 246.28,-115.76 246.28,-103.76 246.28,-103.76 246.28,-97.76 252.28,-91.76 258.28,-91.76"/>
<text text-anchor="middle" x="273.28" y="-106.06" font-family="Arial" font-size="14.00" fill="#000000">R 6</text>
</g>
<!-- system.ruby.network.routers06&#45;&#45;system.ruby.network.routers18 -->
<g id="edge7" class="edge">
<title>system.ruby.network.routers06&#45;&#45;system.ruby.network.routers18</title>
<path fill="none" stroke="#042d50" d="M262.34,-128.12C258.18,-139.5 254.02,-154.33 251.33,-167.18"/>
<polygon fill="#042d50" stroke="#042d50" points="247.82,-166.91 249.46,-177.38 254.71,-168.18 247.82,-166.91"/>
</g>
<!-- system.ruby.network.routers07 -->
<g id="node8" class="node">
<title>system.ruby.network.routers07</title>
<path fill="#cce6fc" stroke="#000000" d="M317.65,-158.94C317.65,-158.94 347.65,-158.94 347.65,-158.94 353.65,-158.94 359.65,-164.94 359.65,-170.94 359.65,-170.94 359.65,-182.94 359.65,-182.94 359.65,-188.94 353.65,-194.94 347.65,-194.94 347.65,-194.94 317.65,-194.94 317.65,-194.94 311.65,-194.94 305.65,-188.94 305.65,-182.94 305.65,-182.94 305.65,-170.94 305.65,-170.94 305.65,-164.94 311.65,-158.94 317.65,-158.94"/>
<text text-anchor="middle" x="332.65" y="-173.24" font-family="Arial" font-size="14.00" fill="#000000">R 7</text>
</g>
<!-- system.ruby.network.routers07&#45;&#45;system.ruby.network.routers18 -->
<g id="edge8" class="edge">
<title>system.ruby.network.routers07&#45;&#45;system.ruby.network.routers18</title>
<path fill="none" stroke="#042d50" d="M305.2,-176.6C299.46,-177.55 293.3,-178.79 287.27,-180.2"/>
<polygon fill="#042d50" stroke="#042d50" points="286.17,-176.87 277.33,-182.71 287.89,-183.65 286.17,-176.87"/>
</g>
<!-- system.ruby.network.routers08 -->
<g id="node9" class="node">
<title>system.ruby.network.routers08</title>
<path fill="#cce6fc" stroke="#000000" d="M149.88,-165.84C149.88,-165.84 179.88,-165.84 179.88,-165.84 185.88,-165.84 191.88,-171.84 191.88,-177.84 191.88,-177.84 191.88,-189.84 191.88,-189.84 191.88,-195.84 185.88,-201.84 179.88,-201.84 179.88,-201.84 149.88,-201.84 149.88,-201.84 143.88,-201.84 137.88,-195.84 137.88,-189.84 137.88,-189.84 137.88,-177.84 137.88,-177.84 137.88,-171.84 143.88,-165.84 149.88,-165.84"/>
<text text-anchor="middle" x="164.88" y="-180.14" font-family="Arial" font-size="14.00" fill="#000000">R 8</text>
</g>
<!-- system.ruby.network.routers08&#45;&#45;system.ruby.network.routers18 -->
<g id="edge9" class="edge">
<title>system.ruby.network.routers08&#45;&#45;system.ruby.network.routers18</title>
<path fill="none" stroke="#042d50" d="M191.99,-193.94C198.68,-195.2 205.95,-196.28 213.03,-197.09"/>
<polygon fill="#042d50" stroke="#042d50" points="212.86,-200.59 223.15,-198.06 213.53,-193.62 212.86,-200.59"/>
</g>
<!-- system.ruby.network.routers09 -->
<g id="node10" class="node">
<title>system.ruby.network.routers09</title>
<path fill="#cce6fc" stroke="#000000" d="M232.97,-105.18C232.97,-105.18 262.97,-105.18 262.97,-105.18 268.97,-105.18 274.97,-111.18 274.97,-117.18 274.97,-117.18 274.97,-129.18 274.97,-129.18 274.97,-135.18 268.97,-141.18 262.97,-141.18 262.97,-141.18 232.97,-141.18 232.97,-141.18 226.97,-141.18 220.97,-135.18 220.97,-129.18 220.97,-129.18 220.97,-117.18 220.97,-117.18 220.97,-111.18 226.97,-105.18 232.97,-105.18"/>
<text text-anchor="middle" x="247.97" y="-119.48" font-family="Arial" font-size="14.00" fill="#000000">R 9</text>
</g>
<!-- system.ruby.network.routers09&#45;&#45;system.ruby.network.routers18 -->
<g id="edge10" class="edge">
<title>system.ruby.network.routers09&#45;&#45;system.ruby.network.routers18</title>
<path fill="none" stroke="#042d50" d="M242.63,-141.22C242.1,-149.02 242.17,-158.34 242.75,-167.03"/>
<polygon fill="#042d50" stroke="#042d50" points="239.29,-167.56 243.73,-177.18 246.26,-166.89 239.29,-167.56"/>
</g>
<!-- system.ruby.network.routers10 -->
<g id="node11" class="node">
<title>system.ruby.network.routers10</title>
<path fill="#cce6fc" stroke="#000000" d="M304.41,-132.9C304.41,-132.9 334.41,-132.9 334.41,-132.9 340.41,-132.9 346.41,-138.9 346.41,-144.9 346.41,-144.9 346.41,-156.9 346.41,-156.9 346.41,-162.9 340.41,-168.9 334.41,-168.9 334.41,-168.9 304.41,-168.9 304.41,-168.9 298.41,-168.9 292.41,-162.9 292.41,-156.9 292.41,-156.9 292.41,-144.9 292.41,-144.9 292.41,-138.9 298.41,-132.9 304.41,-132.9"/>
<text text-anchor="middle" x="319.41" y="-147.2" font-family="Arial" font-size="14.00" fill="#000000">R 10</text>
</g>
<!-- system.ruby.network.routers10&#45;&#45;system.ruby.network.routers18 -->
<g id="edge11" class="edge">
<title>system.ruby.network.routers10&#45;&#45;system.ruby.network.routers18</title>
<path fill="none" stroke="#042d50" d="M292.13,-160.78C286.53,-164.02 280.66,-167.71 275.15,-171.47"/>
<polygon fill="#042d50" stroke="#042d50" points="272.98,-168.71 266.86,-177.36 277.04,-174.41 272.98,-168.71"/>
</g>
<!-- system.ruby.network.routers11 -->
<g id="node12" class="node">
<title>system.ruby.network.routers11</title>
<path fill="#cce6fc" stroke="#000000" d="M208.68,-257.43C208.68,-257.43 238.68,-257.43 238.68,-257.43 244.68,-257.43 250.68,-263.43 250.68,-269.43 250.68,-269.43 250.68,-281.43 250.68,-281.43 250.68,-287.43 244.68,-293.43 238.68,-293.43 238.68,-293.43 208.68,-293.43 208.68,-293.43 202.68,-293.43 196.68,-287.43 196.68,-281.43 196.68,-281.43 196.68,-269.43 196.68,-269.43 196.68,-263.43 202.68,-257.43 208.68,-257.43"/>
<text text-anchor="middle" x="223.68" y="-271.73" font-family="Arial" font-size="14.00" fill="#000000">R 11</text>
</g>
<!-- system.ruby.network.routers11&#45;&#45;system.ruby.network.routers18 -->
<g id="edge12" class="edge">
<title>system.ruby.network.routers11&#45;&#45;system.ruby.network.routers18</title>
<path fill="none" stroke="#042d50" d="M236.04,-257.11C240.32,-247.11 244.64,-234.53 247.7,-223.34"/>
<polygon fill="#042d50" stroke="#042d50" points="251.11,-224.11 250.11,-213.56 244.32,-222.43 251.11,-224.11"/>
</g>
<!-- system.ruby.network.routers12 -->
<g id="node13" class="node">
<title>system.ruby.network.routers12</title>
<path fill="#cce6fc" stroke="#000000" d="M309.52,-216.33C309.52,-216.33 339.52,-216.33 339.52,-216.33 345.52,-216.33 351.52,-222.33 351.52,-228.33 351.52,-228.33 351.52,-240.33 351.52,-240.33 351.52,-246.33 345.52,-252.33 339.52,-252.33 339.52,-252.33 309.52,-252.33 309.52,-252.33 303.52,-252.33 297.52,-246.33 297.52,-240.33 297.52,-240.33 297.52,-228.33 297.52,-228.33 297.52,-222.33 303.52,-216.33 309.52,-216.33"/>
<text text-anchor="middle" x="324.52" y="-230.63" font-family="Arial" font-size="14.00" fill="#000000">R 12</text>
</g>
<!-- system.ruby.network.routers12&#45;&#45;system.ruby.network.routers18 -->
<g id="edge13" class="edge">
<title>system.ruby.network.routers12&#45;&#45;system.ruby.network.routers18</title>
<path fill="none" stroke="#042d50" d="M303.57,-216.16C298.22,-212.97 292.33,-209.74 286.46,-206.78"/>
<polygon fill="#042d50" stroke="#042d50" points="287.87,-203.58 277.35,-202.39 284.84,-209.88 287.87,-203.58"/>
</g>
<!-- system.ruby.network.routers13 -->
<g id="node14" class="node">
<title>system.ruby.network.routers13</title>
<path fill="#cce6fc" stroke="#000000" d="M203.33,-96.99C203.33,-96.99 233.33,-96.99 233.33,-96.99 239.33,-96.99 245.33,-102.99 245.33,-108.99 245.33,-108.99 245.33,-120.99 245.33,-120.99 245.33,-126.99 239.33,-132.99 233.33,-132.99 233.33,-132.99 203.33,-132.99 203.33,-132.99 197.33,-132.99 191.33,-126.99 191.33,-120.99 191.33,-120.99 191.33,-108.99 191.33,-108.99 191.33,-102.99 197.33,-96.99 203.33,-96.99"/>
<text text-anchor="middle" x="218.33" y="-111.29" font-family="Arial" font-size="14.00" fill="#000000">R 13</text>
</g>
<!-- system.ruby.network.routers13&#45;&#45;system.ruby.network.routers18 -->
<g id="edge14" class="edge">
<title>system.ruby.network.routers13&#45;&#45;system.ruby.network.routers18</title>
<path fill="none" stroke="#042d50" d="M219.64,-133.31C222.51,-143.62 227.35,-156.68 232.42,-168.16"/>
<polygon fill="#042d50" stroke="#042d50" points="229.31,-169.76 236.71,-177.34 235.65,-166.8 229.31,-169.76"/>
</g>
<!-- system.ruby.network.routers14 -->
<g id="node15" class="node">
<title>system.ruby.network.routers14</title>
<path fill="#cce6fc" stroke="#000000" d="M176.94,-216.38C176.94,-216.38 206.94,-216.38 206.94,-216.38 212.94,-216.38 218.94,-222.38 218.94,-228.38 218.94,-228.38 218.94,-240.38 218.94,-240.38 218.94,-246.38 212.94,-252.38 206.94,-252.38 206.94,-252.38 176.94,-252.38 176.94,-252.38 170.94,-252.38 164.94,-246.38 164.94,-240.38 164.94,-240.38 164.94,-228.38 164.94,-228.38 164.94,-222.38 170.94,-216.38 176.94,-216.38"/>
<text text-anchor="middle" x="191.94" y="-230.68" font-family="Arial" font-size="14.00" fill="#000000">R 14</text>
</g>
<!-- system.ruby.network.routers14&#45;&#45;system.ruby.network.routers18 -->
<g id="edge15" class="edge">
<title>system.ruby.network.routers14&#45;&#45;system.ruby.network.routers18</title>
<path fill="none" stroke="#042d50" d="M219.02,-224.26C221.35,-222.82 223.69,-221.29 225.99,-219.73"/>
<polygon fill="#042d50" stroke="#042d50" points="228.47,-222.26 234.55,-213.59 224.39,-216.58 228.47,-222.26"/>
</g>
<!-- system.ruby.network.routers15 -->
<g id="node16" class="node">
<title>system.ruby.network.routers15</title>
<path fill="#cce6fc" stroke="#000000" d="M316.72,-188.16C316.72,-188.16 346.72,-188.16 346.72,-188.16 352.72,-188.16 358.72,-194.16 358.72,-200.16 358.72,-200.16 358.72,-212.16 358.72,-212.16 358.72,-218.16 352.72,-224.16 346.72,-224.16 346.72,-224.16 316.72,-224.16 316.72,-224.16 310.72,-224.16 304.72,-218.16 304.72,-212.16 304.72,-212.16 304.72,-200.16 304.72,-200.16 304.72,-194.16 310.72,-188.16 316.72,-188.16"/>
<text text-anchor="middle" x="331.72" y="-202.46" font-family="Arial" font-size="14.00" fill="#000000">R 15</text>
</g>
<!-- system.ruby.network.routers15&#45;&#45;system.ruby.network.routers18 -->
<g id="edge16" class="edge">
<title>system.ruby.network.routers15&#45;&#45;system.ruby.network.routers18</title>
<path fill="none" stroke="#042d50" d="M304.54,-196.06C299.11,-195.07 293.32,-194.21 287.62,-193.55"/>
<polygon fill="#042d50" stroke="#042d50" points="287.84,-190.05 277.55,-192.57 287.16,-197.02 287.84,-190.05"/>
</g>
<!-- system.ruby.network.routers16 -->
<g id="node17" class="node">
<title>system.ruby.network.routers16</title>
<path fill="#cce6fc" stroke="#000000" d="M285.93,-110.31C285.93,-110.31 315.93,-110.31 315.93,-110.31 321.93,-110.31 327.93,-116.31 327.93,-122.31 327.93,-122.31 327.93,-134.31 327.93,-134.31 327.93,-140.31 321.93,-146.31 315.93,-146.31 315.93,-146.31 285.93,-146.31 285.93,-146.31 279.93,-146.31 273.93,-140.31 273.93,-134.31 273.93,-134.31 273.93,-122.31 273.93,-122.31 273.93,-116.31 279.93,-110.31 285.93,-110.31"/>
<text text-anchor="middle" x="300.93" y="-124.61" font-family="Arial" font-size="14.00" fill="#000000">R 16</text>
</g>
<!-- system.ruby.network.routers16&#45;&#45;system.ruby.network.routers18 -->
<g id="edge17" class="edge">
<title>system.ruby.network.routers16&#45;&#45;system.ruby.network.routers18</title>
<path fill="none" stroke="#042d50" d="M279.26,-146.43C273.49,-153.28 267.48,-161.21 262.39,-168.67"/>
<polygon fill="#042d50" stroke="#042d50" points="259.41,-166.84 256.91,-177.13 265.28,-170.65 259.41,-166.84"/>
</g>
<!-- system.ruby.network.routers17 -->
<g id="node18" class="node">
<title>system.ruby.network.routers17</title>
<path fill="#cce6fc" stroke="#000000" d="M238.04,-260.54C238.04,-260.54 268.04,-260.54 268.04,-260.54 274.04,-260.54 280.04,-266.54 280.04,-272.54 280.04,-272.54 280.04,-284.54 280.04,-284.54 280.04,-290.54 274.04,-296.54 268.04,-296.54 268.04,-296.54 238.04,-296.54 238.04,-296.54 232.04,-296.54 226.04,-290.54 226.04,-284.54 226.04,-284.54 226.04,-272.54 226.04,-272.54 226.04,-266.54 232.04,-260.54 238.04,-260.54"/>
<text text-anchor="middle" x="253.04" y="-274.84" font-family="Arial" font-size="14.00" fill="#000000">R 17</text>
</g>
<!-- system.ruby.network.routers17&#45;&#45;system.ruby.network.routers18 -->
<g id="edge18" class="edge">
<title>system.ruby.network.routers17&#45;&#45;system.ruby.network.routers18</title>
<path fill="none" stroke="#042d50" d="M252.44,-260.5C252.08,-249.71 251.62,-235.77 251.22,-223.56"/>
<polygon fill="#042d50" stroke="#042d50" points="254.71,-223.27 250.88,-213.39 247.71,-223.5 254.71,-223.27"/>
</g>
<!-- system.ruby.network.routers18&#45;&#45;system.ruby.network.routers00 -->
<g id="edge19" class="edge">
<title>system.ruby.network.routers18&#45;&#45;system.ruby.network.routers00</title>
<path fill="none" stroke="#042d50" d="M223.08,-195.39C216.61,-196.53 209.61,-198.03 202.79,-199.74"/>
<polygon fill="#042d50" stroke="#042d50" points="201.77,-196.39 193.03,-202.37 203.59,-203.15 201.77,-196.39"/>
</g>
<!-- system.ruby.network.routers18&#45;&#45;system.ruby.network.routers01 -->
<g id="edge20" class="edge">
<title>system.ruby.network.routers18&#45;&#45;system.ruby.network.routers01</title>
<path fill="none" stroke="#042d50" d="M229.55,-177.36C225.14,-174.75 220.37,-172.14 215.58,-169.7"/>
<polygon fill="#042d50" stroke="#042d50" points="216.95,-166.48 206.43,-165.27 213.9,-172.78 216.95,-166.48"/>
</g>
<!-- system.ruby.network.routers18&#45;&#45;system.ruby.network.routers02 -->
<g id="edge21" class="edge">
<title>system.ruby.network.routers18&#45;&#45;system.ruby.network.routers02</title>
<path fill="none" stroke="#042d50" d="M241.25,-177.1C236.64,-171.05 230.81,-164.24 224.76,-157.76"/>
<polygon fill="#042d50" stroke="#042d50" points="227.09,-155.14 217.62,-150.38 222.06,-160 227.09,-155.14"/>
</g>
<!-- system.ruby.network.routers18&#45;&#45;system.ruby.network.routers03 -->
<g id="edge22" class="edge">
<title>system.ruby.network.routers18&#45;&#45;system.ruby.network.routers03</title>
<path fill="none" stroke="#042d50" d="M251.58,-213.52C254.28,-223.01 258.68,-234.79 263.38,-245.36"/>
<polygon fill="#042d50" stroke="#042d50" points="260.31,-247.06 267.73,-254.62 266.64,-244.08 260.31,-247.06"/>
</g>
<!-- system.ruby.network.routers18&#45;&#45;system.ruby.network.routers04 -->
<g id="edge23" class="edge">
<title>system.ruby.network.routers18&#45;&#45;system.ruby.network.routers04</title>
<path fill="none" stroke="#042d50" d="M258.88,-213.53C263,-219.05 268.14,-225.21 273.51,-231.11"/>
<polygon fill="#042d50" stroke="#042d50" points="270.97,-233.52 280.37,-238.4 276.06,-228.72 270.97,-233.52"/>
</g>
<!-- system.ruby.network.routers18&#45;&#45;system.ruby.network.routers05 -->
<g id="edge24" class="edge">
<title>system.ruby.network.routers18&#45;&#45;system.ruby.network.routers05</title>
<path fill="none" stroke="#042d50" d="M225.9,-213.55C219.31,-220.38 212.41,-228.28 206.49,-235.72"/>
<polygon fill="#042d50" stroke="#042d50" points="203.33,-234.09 200.07,-244.17 208.91,-238.32 203.33,-234.09"/>
</g>
<!-- system.ruby.network.routers18&#45;&#45;system.ruby.network.routers06 -->
<g id="edge25" class="edge">
<title>system.ruby.network.routers18&#45;&#45;system.ruby.network.routers06</title>
<path fill="none" stroke="#042d50" d="M261.22,-177.03C265.38,-165.65 269.54,-150.82 272.22,-137.97"/>
<polygon fill="#042d50" stroke="#042d50" points="275.73,-138.23 274.1,-127.77 268.85,-136.97 275.73,-138.23"/>
</g>
<!-- system.ruby.network.routers18&#45;&#45;system.ruby.network.routers07 -->
<g id="edge26" class="edge">
<title>system.ruby.network.routers18&#45;&#45;system.ruby.network.routers07</title>
<path fill="none" stroke="#042d50" d="M277.73,-195.72C283.47,-194.78 289.63,-193.54 295.66,-192.13"/>
<polygon fill="#042d50" stroke="#042d50" points="296.76,-195.46 305.6,-189.61 295.04,-188.67 296.76,-195.46"/>
</g>
<!-- system.ruby.network.routers18&#45;&#45;system.ruby.network.routers08 -->
<g id="edge27" class="edge">
<title>system.ruby.network.routers18&#45;&#45;system.ruby.network.routers08</title>
<path fill="none" stroke="#042d50" d="M223.17,-185.28C216.49,-184.02 209.21,-182.94 202.14,-182.13"/>
<polygon fill="#042d50" stroke="#042d50" points="202.3,-178.63 192.01,-181.16 201.63,-185.6 202.3,-178.63"/>
</g>
<!-- system.ruby.network.routers18&#45;&#45;system.ruby.network.routers09 -->
<g id="edge28" class="edge">
<title>system.ruby.network.routers18&#45;&#45;system.ruby.network.routers09</title>
<path fill="none" stroke="#042d50" d="M255.62,-177.35C256.15,-169.54 256.09,-160.22 255.5,-151.53"/>
<polygon fill="#042d50" stroke="#042d50" points="258.97,-151.01 254.53,-141.39 252,-151.68 258.97,-151.01"/>
</g>
<!-- system.ruby.network.routers18&#45;&#45;system.ruby.network.routers10 -->
<g id="edge29" class="edge">
<title>system.ruby.network.routers18&#45;&#45;system.ruby.network.routers10</title>
<path fill="none" stroke="#042d50" d="M277.56,-185.5C283.16,-182.26 289.03,-178.57 294.54,-174.82"/>
<polygon fill="#042d50" stroke="#042d50" points="296.71,-177.57 302.83,-168.92 292.65,-171.87 296.71,-177.57"/>
</g>
<!-- system.ruby.network.routers18&#45;&#45;system.ruby.network.routers11 -->
<g id="edge30" class="edge">
<title>system.ruby.network.routers18&#45;&#45;system.ruby.network.routers11</title>
<path fill="none" stroke="#042d50" d="M237.92,-213.71C233.65,-223.7 229.32,-236.28 226.27,-247.47"/>
<polygon fill="#042d50" stroke="#042d50" points="222.85,-246.7 223.85,-257.25 229.65,-248.38 222.85,-246.7"/>
</g>
<!-- system.ruby.network.routers18&#45;&#45;system.ruby.network.routers12 -->
<g id="edge31" class="edge">
<title>system.ruby.network.routers18&#45;&#45;system.ruby.network.routers12</title>
<path fill="none" stroke="#042d50" d="M271.23,-213.55C276.57,-216.74 282.47,-219.97 288.34,-222.93"/>
<polygon fill="#042d50" stroke="#042d50" points="286.92,-226.13 297.45,-227.32 289.96,-219.83 286.92,-226.13"/>
</g>
<!-- system.ruby.network.routers18&#45;&#45;system.ruby.network.routers13 -->
<g id="edge32" class="edge">
<title>system.ruby.network.routers18&#45;&#45;system.ruby.network.routers13</title>
<path fill="none" stroke="#042d50" d="M248.97,-177.07C246.09,-166.75 241.26,-153.7 236.18,-142.21"/>
<polygon fill="#042d50" stroke="#042d50" points="239.3,-140.62 231.9,-133.03 232.96,-143.58 239.3,-140.62"/>
</g>
<!-- system.ruby.network.routers18&#45;&#45;system.ruby.network.routers14 -->
<g id="edge33" class="edge">
<title>system.ruby.network.routers18&#45;&#45;system.ruby.network.routers14</title>
<path fill="none" stroke="#042d50" d="M223.2,-205.51C220.88,-206.95 218.53,-208.47 216.23,-210.03"/>
<polygon fill="#042d50" stroke="#042d50" points="213.75,-207.5 207.67,-216.18 217.83,-213.19 213.75,-207.5"/>
</g>
<!-- system.ruby.network.routers18&#45;&#45;system.ruby.network.routers15 -->
<g id="edge34" class="edge">
<title>system.ruby.network.routers18&#45;&#45;system.ruby.network.routers15</title>
<path fill="none" stroke="#042d50" d="M277.46,-205.49C282.89,-206.47 288.68,-207.33 294.38,-208"/>
<polygon fill="#042d50" stroke="#042d50" points="294.16,-211.49 304.45,-208.97 294.84,-204.52 294.16,-211.49"/>
</g>
<!-- system.ruby.network.routers18&#45;&#45;system.ruby.network.routers16 -->
<g id="edge35" class="edge">
<title>system.ruby.network.routers18&#45;&#45;system.ruby.network.routers16</title>
<path fill="none" stroke="#042d50" d="M271.96,-177.27C277.73,-170.41 283.74,-162.48 288.82,-155.02"/>
<polygon fill="#042d50" stroke="#042d50" points="291.81,-156.85 294.31,-146.56 285.93,-153.05 291.81,-156.85"/>
</g>
<!-- system.cpu_cluster.cpus0.l1i -->
<g id="node20" class="node">
<title>system.cpu_cluster.cpus0.l1i</title>
<path fill="#e5bcd0" stroke="#000000" d="M13.11,-217.3C13.11,-217.3 131.11,-217.3 131.11,-217.3 137.11,-217.3 143.11,-223.3 143.11,-229.3 143.11,-229.3 143.11,-241.3 143.11,-241.3 143.11,-247.3 137.11,-253.3 131.11,-253.3 131.11,-253.3 13.11,-253.3 13.11,-253.3 7.11,-253.3 1.11,-247.3 1.11,-241.3 1.11,-241.3 1.11,-229.3 1.11,-229.3 1.11,-223.3 7.11,-217.3 13.11,-217.3"/>
<text text-anchor="middle" x="72.11" y="-231.6" font-family="Arial" font-size="14.00" fill="#000000">cpu_cluster.cpus0.l1i</text>
</g>
<!-- system.cpu_cluster.cpus0.l1i&#45;&#45;system.ruby.network.routers00 -->
<g id="edge36" class="edge">
<title>system.cpu_cluster.cpus0.l1i&#45;&#45;system.ruby.network.routers00</title>
<path fill="none" stroke="#381526" d="M143.41,-220.18C143.43,-220.18 143.46,-220.17 143.48,-220.16"/>
<polygon fill="#381526" stroke="#381526" points="152.31,-214.71 143.25,-220.21 153.76,-221.56 152.31,-214.71"/>
<polygon fill="#381526" stroke="#381526" points="134.51,-225.66 143.56,-220.15 133.05,-218.81 134.51,-225.66"/>
</g>
<!-- system.cpu_cluster.cpus0.l1d -->
<g id="node21" class="node">
<title>system.cpu_cluster.cpus0.l1d</title>
<path fill="#e5bcd0" stroke="#000000" d="M29.41,-94.33C29.41,-94.33 151.41,-94.33 151.41,-94.33 157.41,-94.33 163.41,-100.33 163.41,-106.33 163.41,-106.33 163.41,-118.33 163.41,-118.33 163.41,-124.33 157.41,-130.33 151.41,-130.33 151.41,-130.33 29.41,-130.33 29.41,-130.33 23.41,-130.33 17.41,-124.33 17.41,-118.33 17.41,-118.33 17.41,-106.33 17.41,-106.33 17.41,-100.33 23.41,-94.33 29.41,-94.33"/>
<text text-anchor="middle" x="90.41" y="-108.63" font-family="Arial" font-size="14.00" fill="#000000">cpu_cluster.cpus0.l1d</text>
</g>
<!-- system.cpu_cluster.cpus0.l1d&#45;&#45;system.ruby.network.routers01 -->
<g id="edge37" class="edge">
<title>system.cpu_cluster.cpus0.l1d&#45;&#45;system.ruby.network.routers01</title>
<path fill="none" stroke="#381526" d="M134.14,-134.99C137.1,-136.52 140.08,-138.06 143,-139.58"/>
<polygon fill="#381526" stroke="#381526" points="135.71,-131.86 125.22,-130.37 132.49,-138.08 135.71,-131.86"/>
<polygon fill="#381526" stroke="#381526" points="141.62,-142.8 152.1,-144.3 144.84,-136.59 141.62,-142.8"/>
</g>
<!-- system.cpu_cluster.cpus0.l2 -->
<g id="node22" class="node">
<title>system.cpu_cluster.cpus0.l2</title>
<path fill="#e5bcd0" stroke="#000000" d="M68.98,-43.46C68.98,-43.46 183.98,-43.46 183.98,-43.46 189.98,-43.46 195.98,-49.46 195.98,-55.46 195.98,-55.46 195.98,-67.46 195.98,-67.46 195.98,-73.46 189.98,-79.46 183.98,-79.46 183.98,-79.46 68.98,-79.46 68.98,-79.46 62.98,-79.46 56.98,-73.46 56.98,-67.46 56.98,-67.46 56.98,-55.46 56.98,-55.46 56.98,-49.46 62.98,-43.46 68.98,-43.46"/>
<text text-anchor="middle" x="126.48" y="-57.76" font-family="Arial" font-size="14.00" fill="#000000">cpu_cluster.cpus0.l2</text>
</g>
<!-- system.cpu_cluster.cpus0.l2&#45;&#45;system.ruby.network.routers02 -->
<g id="edge38" class="edge">
<title>system.cpu_cluster.cpus0.l2&#45;&#45;system.ruby.network.routers02</title>
<path fill="none" stroke="#381526" d="M150.21,-87.08C155.94,-93.27 162.08,-99.89 167.82,-106.09"/>
<polygon fill="#381526" stroke="#381526" points="152.67,-84.59 143.31,-79.63 147.54,-89.35 152.67,-84.59"/>
<polygon fill="#381526" stroke="#381526" points="165.47,-108.71 174.84,-113.66 170.61,-103.95 165.47,-108.71"/>
</g>
<!-- system.cpu_cluster.cpus1.l1i -->
<g id="node23" class="node">
<title>system.cpu_cluster.cpus1.l1i</title>
<path fill="#e5bcd0" stroke="#000000" d="M259.41,-344.98C259.41,-344.98 377.41,-344.98 377.41,-344.98 383.41,-344.98 389.41,-350.98 389.41,-356.98 389.41,-356.98 389.41,-368.98 389.41,-368.98 389.41,-374.98 383.41,-380.98 377.41,-380.98 377.41,-380.98 259.41,-380.98 259.41,-380.98 253.41,-380.98 247.41,-374.98 247.41,-368.98 247.41,-368.98 247.41,-356.98 247.41,-356.98 247.41,-350.98 253.41,-344.98 259.41,-344.98"/>
<text text-anchor="middle" x="318.41" y="-359.28" font-family="Arial" font-size="14.00" fill="#000000">cpu_cluster.cpus1.l1i</text>
</g>
<!-- system.cpu_cluster.cpus1.l1i&#45;&#45;system.ruby.network.routers03 -->
<g id="edge39" class="edge">
<title>system.cpu_cluster.cpus1.l1i&#45;&#45;system.ruby.network.routers03</title>
<path fill="none" stroke="#381526" d="M307.11,-335.31C302.61,-324.29 297.44,-311.63 292.94,-300.6"/>
<polygon fill="#381526" stroke="#381526" points="303.94,-336.8 310.96,-344.73 310.42,-334.15 303.94,-336.8"/>
<polygon fill="#381526" stroke="#381526" points="296.05,-298.96 289.03,-291.03 289.57,-301.61 296.05,-298.96"/>
</g>
<!-- system.cpu_cluster.cpus1.l1d -->
<g id="node24" class="node">
<title>system.cpu_cluster.cpus1.l1d</title>
<path fill="#e5bcd0" stroke="#000000" d="M310.55,-311.25C310.55,-311.25 432.55,-311.25 432.55,-311.25 438.55,-311.25 444.55,-317.25 444.55,-323.25 444.55,-323.25 444.55,-335.25 444.55,-335.25 444.55,-341.25 438.55,-347.25 432.55,-347.25 432.55,-347.25 310.55,-347.25 310.55,-347.25 304.55,-347.25 298.55,-341.25 298.55,-335.25 298.55,-335.25 298.55,-323.25 298.55,-323.25 298.55,-317.25 304.55,-311.25 310.55,-311.25"/>
<text text-anchor="middle" x="371.55" y="-325.55" font-family="Arial" font-size="14.00" fill="#000000">cpu_cluster.cpus1.l1d</text>
</g>
<!-- system.cpu_cluster.cpus1.l1d&#45;&#45;system.ruby.network.routers04 -->
<g id="edge40" class="edge">
<title>system.cpu_cluster.cpus1.l1d&#45;&#45;system.ruby.network.routers04</title>
<path fill="none" stroke="#381526" d="M348.07,-303.36C341.92,-296.57 335.29,-289.26 329.15,-282.49"/>
<polygon fill="#381526" stroke="#381526" points="345.68,-305.92 354.99,-310.98 350.86,-301.22 345.68,-305.92"/>
<polygon fill="#381526" stroke="#381526" points="331.54,-279.92 322.23,-274.86 326.36,-284.62 331.54,-279.92"/>
</g>
<!-- system.cpu_cluster.cpus1.l2 -->
<g id="node25" class="node">
<title>system.cpu_cluster.cpus1.l2</title>
<path fill="#e5bcd0" stroke="#000000" d="M76.49,-319.31C76.49,-319.31 191.49,-319.31 191.49,-319.31 197.49,-319.31 203.49,-325.31 203.49,-331.31 203.49,-331.31 203.49,-343.31 203.49,-343.31 203.49,-349.31 197.49,-355.31 191.49,-355.31 191.49,-355.31 76.49,-355.31 76.49,-355.31 70.49,-355.31 64.49,-349.31 64.49,-343.31 64.49,-343.31 64.49,-331.31 64.49,-331.31 64.49,-325.31 70.49,-319.31 76.49,-319.31"/>
<text text-anchor="middle" x="133.99" y="-333.61" font-family="Arial" font-size="14.00" fill="#000000">cpu_cluster.cpus1.l2</text>
</g>
<!-- system.cpu_cluster.cpus1.l2&#45;&#45;system.ruby.network.routers05 -->
<g id="edge41" class="edge">
<title>system.cpu_cluster.cpus1.l2&#45;&#45;system.ruby.network.routers05</title>
<path fill="none" stroke="#381526" d="M154.14,-311.15C159.69,-303.94 165.72,-296.11 171.27,-288.89"/>
<polygon fill="#381526" stroke="#381526" points="151.25,-309.17 147.92,-319.23 156.79,-313.44 151.25,-309.17"/>
<polygon fill="#381526" stroke="#381526" points="174.2,-290.83 177.53,-280.77 168.66,-286.56 174.2,-290.83"/>
</g>
<!-- system.cpu_cluster.cpus2.l1i -->
<g id="node26" class="node">
<title>system.cpu_cluster.cpus2.l1i</title>
<path fill="#e5bcd0" stroke="#000000" d="M242.27,-1.5C242.27,-1.5 360.27,-1.5 360.27,-1.5 366.27,-1.5 372.27,-7.5 372.27,-13.5 372.27,-13.5 372.27,-25.5 372.27,-25.5 372.27,-31.5 366.27,-37.5 360.27,-37.5 360.27,-37.5 242.27,-37.5 242.27,-37.5 236.27,-37.5 230.27,-31.5 230.27,-25.5 230.27,-25.5 230.27,-13.5 230.27,-13.5 230.27,-7.5 236.27,-1.5 242.27,-1.5"/>
<text text-anchor="middle" x="301.27" y="-15.8" font-family="Arial" font-size="14.00" fill="#000000">cpu_cluster.cpus2.l1i</text>
</g>
<!-- system.cpu_cluster.cpus2.l1i&#45;&#45;system.ruby.network.routers06 -->
<g id="edge42" class="edge">
<title>system.cpu_cluster.cpus2.l1i&#45;&#45;system.ruby.network.routers06</title>
<path fill="none" stroke="#381526" d="M292.55,-47.62C289.19,-58.47 285.34,-70.86 281.98,-81.7"/>
<polygon fill="#381526" stroke="#381526" points="295.99,-48.36 295.61,-37.77 289.3,-46.28 295.99,-48.36"/>
<polygon fill="#381526" stroke="#381526" points="278.55,-80.94 278.93,-91.53 285.24,-83.01 278.55,-80.94"/>
</g>
<!-- system.cpu_cluster.cpus2.l1d -->
<g id="node27" class="node">
<title>system.cpu_cluster.cpus2.l1d</title>
<path fill="#e5bcd0" stroke="#000000" d="M366.16,-138.17C366.16,-138.17 488.16,-138.17 488.16,-138.17 494.16,-138.17 500.16,-144.17 500.16,-150.17 500.16,-150.17 500.16,-162.17 500.16,-162.17 500.16,-168.17 494.16,-174.17 488.16,-174.17 488.16,-174.17 366.16,-174.17 366.16,-174.17 360.16,-174.17 354.16,-168.17 354.16,-162.17 354.16,-162.17 354.16,-150.17 354.16,-150.17 354.16,-144.17 360.16,-138.17 366.16,-138.17"/>
<text text-anchor="middle" x="427.16" y="-152.47" font-family="Arial" font-size="14.00" fill="#000000">cpu_cluster.cpus2.l1d</text>
</g>
<!-- system.cpu_cluster.cpus2.l1d&#45;&#45;system.ruby.network.routers07 -->
<g id="edge43" class="edge">
<title>system.cpu_cluster.cpus2.l1d&#45;&#45;system.ruby.network.routers07</title>
<path fill="none" stroke="#381526" d="M353.95,-172.26C353.93,-172.27 353.9,-172.27 353.88,-172.28"/>
<polygon fill="#381526" stroke="#381526" points="345.08,-177.8 354.1,-172.23 343.58,-170.96 345.08,-177.8"/>
<polygon fill="#381526" stroke="#381526" points="362.82,-166.72 353.81,-172.29 364.33,-173.55 362.82,-166.72"/>
</g>
<!-- system.cpu_cluster.cpus2.l2 -->
<g id="node28" class="node">
<title>system.cpu_cluster.cpus2.l2</title>
<path fill="#e5bcd0" stroke="#000000" d="M12,-153.15C12,-153.15 127,-153.15 127,-153.15 133,-153.15 139,-159.15 139,-165.15 139,-165.15 139,-177.15 139,-177.15 139,-183.15 133,-189.15 127,-189.15 127,-189.15 12,-189.15 12,-189.15 6,-189.15 0,-183.15 0,-177.15 0,-177.15 0,-165.15 0,-165.15 0,-159.15 6,-153.15 12,-153.15"/>
<text text-anchor="middle" x="69.5" y="-167.45" font-family="Arial" font-size="14.00" fill="#000000">cpu_cluster.cpus2.l2</text>
</g>
<!-- system.cpu_cluster.cpus2.l2&#45;&#45;system.ruby.network.routers08 -->
<g id="edge44" class="edge">
<title>system.cpu_cluster.cpus2.l2&#45;&#45;system.ruby.network.routers08</title>
<path fill="none" stroke="#381526" d="M139.24,-180.43C139.27,-180.43 139.3,-180.43 139.33,-180.44"/>
<polygon fill="#381526" stroke="#381526" points="149.45,-178.26 139.07,-180.4 148.52,-185.2 149.45,-178.26"/>
<polygon fill="#381526" stroke="#381526" points="129.04,-182.59 139.41,-180.45 129.97,-175.65 129.04,-182.59"/>
</g>
<!-- system.cpu_cluster.cpus3.l1i -->
<g id="node29" class="node">
<title>system.cpu_cluster.cpus3.l1i</title>
<path fill="#e5bcd0" stroke="#000000" d="M184.27,-0.5C184.27,-0.5 302.27,-0.5 302.27,-0.5 308.27,-0.5 314.27,-6.5 314.27,-12.5 314.27,-12.5 314.27,-24.5 314.27,-24.5 314.27,-30.5 308.27,-36.5 302.27,-36.5 302.27,-36.5 184.27,-36.5 184.27,-36.5 178.27,-36.5 172.27,-30.5 172.27,-24.5 172.27,-24.5 172.27,-12.5 172.27,-12.5 172.27,-6.5 178.27,-0.5 184.27,-0.5"/>
<text text-anchor="middle" x="243.27" y="-14.8" font-family="Arial" font-size="14.00" fill="#000000">cpu_cluster.cpus3.l1i</text>
</g>
<!-- system.cpu_cluster.cpus3.l1i&#45;&#45;system.ruby.network.routers09 -->
<g id="edge45" class="edge">
<title>system.cpu_cluster.cpus3.l1i&#45;&#45;system.ruby.network.routers09</title>
<path fill="none" stroke="#381526" d="M244.55,-46.97C245.22,-61.9 246.04,-80.12 246.71,-95"/>
<polygon fill="#381526" stroke="#381526" points="248.04,-46.57 244.09,-36.73 241.04,-46.88 248.04,-46.57"/>
<polygon fill="#381526" stroke="#381526" points="243.22,-95.32 247.16,-105.16 250.21,-95.01 243.22,-95.32"/>
</g>
<!-- system.cpu_cluster.cpus3.l1d -->
<g id="node30" class="node">
<title>system.cpu_cluster.cpus3.l1d</title>
<path fill="#e5bcd0" stroke="#000000" d="M341.3,-80.22C341.3,-80.22 463.3,-80.22 463.3,-80.22 469.3,-80.22 475.3,-86.22 475.3,-92.22 475.3,-92.22 475.3,-104.22 475.3,-104.22 475.3,-110.22 469.3,-116.22 463.3,-116.22 463.3,-116.22 341.3,-116.22 341.3,-116.22 335.3,-116.22 329.3,-110.22 329.3,-104.22 329.3,-104.22 329.3,-92.22 329.3,-92.22 329.3,-86.22 335.3,-80.22 341.3,-80.22"/>
<text text-anchor="middle" x="402.3" y="-94.52" font-family="Arial" font-size="14.00" fill="#000000">cpu_cluster.cpus3.l1d</text>
</g>
<!-- system.cpu_cluster.cpus3.l1d&#45;&#45;system.ruby.network.routers10 -->
<g id="edge46" class="edge">
<title>system.cpu_cluster.cpus3.l1d&#45;&#45;system.ruby.network.routers10</title>
<path fill="none" stroke="#381526" d="M365.32,-121.72C361.98,-123.85 358.59,-126 355.25,-128.12"/>
<polygon fill="#381526" stroke="#381526" points="367.21,-124.67 373.78,-116.35 363.46,-118.76 367.21,-124.67"/>
<polygon fill="#381526" stroke="#381526" points="353.15,-125.31 346.59,-133.62 356.91,-131.22 353.15,-125.31"/>
</g>
<!-- system.cpu_cluster.cpus3.l2 -->
<g id="node31" class="node">
<title>system.cpu_cluster.cpus3.l2</title>
<path fill="#e5bcd0" stroke="#000000" d="M136.52,-349.88C136.52,-349.88 251.52,-349.88 251.52,-349.88 257.52,-349.88 263.52,-355.88 263.52,-361.88 263.52,-361.88 263.52,-373.88 263.52,-373.88 263.52,-379.88 257.52,-385.88 251.52,-385.88 251.52,-385.88 136.52,-385.88 136.52,-385.88 130.52,-385.88 124.52,-379.88 124.52,-373.88 124.52,-373.88 124.52,-361.88 124.52,-361.88 124.52,-355.88 130.52,-349.88 136.52,-349.88"/>
<text text-anchor="middle" x="194.02" y="-364.18" font-family="Arial" font-size="14.00" fill="#000000">cpu_cluster.cpus3.l2</text>
</g>
<!-- system.cpu_cluster.cpus3.l2&#45;&#45;system.ruby.network.routers11 -->
<g id="edge47" class="edge">
<title>system.cpu_cluster.cpus3.l2&#45;&#45;system.ruby.network.routers11</title>
<path fill="none" stroke="#381526" d="M203.02,-339.82C206.74,-328.23 211.04,-314.82 214.76,-303.25"/>
<polygon fill="#381526" stroke="#381526" points="199.6,-339.02 199.88,-349.61 206.27,-341.16 199.6,-339.02"/>
<polygon fill="#381526" stroke="#381526" points="218.11,-304.25 217.84,-293.65 211.45,-302.11 218.11,-304.25"/>
</g>
<!-- system.ruby.mn.cntrl -->
<g id="node32" class="node">
<title>system.ruby.mn.cntrl</title>
<path fill="#e5bcd0" stroke="#000000" d="M374.97,-261.53C374.97,-261.53 445.97,-261.53 445.97,-261.53 451.97,-261.53 457.97,-267.53 457.97,-273.53 457.97,-273.53 457.97,-285.53 457.97,-285.53 457.97,-291.53 451.97,-297.53 445.97,-297.53 445.97,-297.53 374.97,-297.53 374.97,-297.53 368.97,-297.53 362.97,-291.53 362.97,-285.53 362.97,-285.53 362.97,-273.53 362.97,-273.53 362.97,-267.53 368.97,-261.53 374.97,-261.53"/>
<text text-anchor="middle" x="410.47" y="-275.83" font-family="Arial" font-size="14.00" fill="#000000">ruby.mn.cntrl</text>
</g>
<!-- system.ruby.mn.cntrl&#45;&#45;system.ruby.network.routers12 -->
<g id="edge48" class="edge">
<title>system.ruby.mn.cntrl&#45;&#45;system.ruby.network.routers12</title>
<path fill="none" stroke="#381526" d="M367.14,-256.74C364.98,-255.61 362.83,-254.48 360.7,-253.36"/>
<polygon fill="#381526" stroke="#381526" points="365.52,-259.85 376,-261.41 368.78,-253.65 365.52,-259.85"/>
<polygon fill="#381526" stroke="#381526" points="362.06,-250.12 351.58,-248.56 358.8,-256.31 362.06,-250.12"/>
</g>
<!-- system.ruby.hnf.cntrl -->
<g id="node33" class="node">
<title>system.ruby.hnf.cntrl</title>
<path fill="#e5bcd0" stroke="#000000" d="M145.66,-8.75C145.66,-8.75 215.66,-8.75 215.66,-8.75 221.66,-8.75 227.66,-14.75 227.66,-20.75 227.66,-20.75 227.66,-32.75 227.66,-32.75 227.66,-38.75 221.66,-44.75 215.66,-44.75 215.66,-44.75 145.66,-44.75 145.66,-44.75 139.66,-44.75 133.66,-38.75 133.66,-32.75 133.66,-32.75 133.66,-20.75 133.66,-20.75 133.66,-14.75 139.66,-8.75 145.66,-8.75"/>
<text text-anchor="middle" x="180.66" y="-23.05" font-family="Arial" font-size="14.00" fill="#000000">ruby.hnf.cntrl</text>
</g>
<!-- system.ruby.hnf.cntrl&#45;&#45;system.ruby.network.routers13 -->
<g id="edge49" class="edge">
<title>system.ruby.hnf.cntrl&#45;&#45;system.ruby.network.routers13</title>
<path fill="none" stroke="#381526" d="M192.52,-54.53C196.97,-64.97 202.03,-76.83 206.49,-87.26"/>
<polygon fill="#381526" stroke="#381526" points="195.61,-52.86 188.46,-45.04 189.17,-55.61 195.61,-52.86"/>
<polygon fill="#381526" stroke="#381526" points="203.39,-88.91 210.53,-96.73 209.82,-86.16 203.39,-88.91"/>
</g>
<!-- system.ruby.snf.cntrl -->
<g id="node34" class="node">
<title>system.ruby.snf.cntrl</title>
<path fill="#e5bcd0" stroke="#000000" d="M67.85,-273.35C67.85,-273.35 136.85,-273.35 136.85,-273.35 142.85,-273.35 148.85,-279.35 148.85,-285.35 148.85,-285.35 148.85,-297.35 148.85,-297.35 148.85,-303.35 142.85,-309.35 136.85,-309.35 136.85,-309.35 67.85,-309.35 67.85,-309.35 61.85,-309.35 55.85,-303.35 55.85,-297.35 55.85,-297.35 55.85,-285.35 55.85,-285.35 55.85,-279.35 61.85,-273.35 67.85,-273.35"/>
<text text-anchor="middle" x="102.35" y="-287.65" font-family="Arial" font-size="14.00" fill="#000000">ruby.snf.cntrl</text>
</g>
<!-- system.ruby.snf.cntrl&#45;&#45;system.ruby.network.routers14 -->
<g id="edge50" class="edge">
<title>system.ruby.snf.cntrl&#45;&#45;system.ruby.network.routers14</title>
<path fill="none" stroke="#381526" d="M139.35,-267.82C144.92,-264.28 150.65,-260.63 156.19,-257.11"/>
<polygon fill="#381526" stroke="#381526" points="137.26,-265 130.7,-273.32 141.01,-270.91 137.26,-265"/>
<polygon fill="#381526" stroke="#381526" points="158.13,-260.02 164.69,-251.7 154.38,-254.12 158.13,-260.02"/>
</g>
<!-- system.ruby.rom_snf.cntrl -->
<g id="node35" class="node">
<title>system.ruby.rom_snf.cntrl</title>
<path fill="#e5bcd0" stroke="#000000" d="M378.51,-201.28C378.51,-201.28 479.51,-201.28 479.51,-201.28 485.51,-201.28 491.51,-207.28 491.51,-213.28 491.51,-213.28 491.51,-225.28 491.51,-225.28 491.51,-231.28 485.51,-237.28 479.51,-237.28 479.51,-237.28 378.51,-237.28 378.51,-237.28 372.51,-237.28 366.51,-231.28 366.51,-225.28 366.51,-225.28 366.51,-213.28 366.51,-213.28 366.51,-207.28 372.51,-201.28 378.51,-201.28"/>
<text text-anchor="middle" x="429.01" y="-215.58" font-family="Arial" font-size="14.00" fill="#000000">ruby.rom_snf.cntrl</text>
</g>
<!-- system.ruby.rom_snf.cntrl&#45;&#45;system.ruby.network.routers15 -->
<g id="edge51" class="edge">
<title>system.ruby.rom_snf.cntrl&#45;&#45;system.ruby.network.routers15</title>
<path fill="none" stroke="#381526" d="M359.43,-209.9C359.35,-209.89 359.28,-209.88 359.2,-209.87"/>
<polygon fill="#381526" stroke="#381526" points="355.91,-212.95 366.29,-210.82 356.85,-206.02 355.91,-212.95"/>
<polygon fill="#381526" stroke="#381526" points="369.36,-207.71 358.98,-209.84 368.42,-214.64 369.36,-207.71"/>
</g>
<!-- system.ruby.dma_rni.cntrl -->
<g id="node36" class="node">
<title>system.ruby.dma_rni.cntrl</title>
<path fill="#e5bcd0" stroke="#000000" d="M309.69,-33.3C309.69,-33.3 410.69,-33.3 410.69,-33.3 416.69,-33.3 422.69,-39.3 422.69,-45.3 422.69,-45.3 422.69,-57.3 422.69,-57.3 422.69,-63.3 416.69,-69.3 410.69,-69.3 410.69,-69.3 309.69,-69.3 309.69,-69.3 303.69,-69.3 297.69,-63.3 297.69,-57.3 297.69,-57.3 297.69,-45.3 297.69,-45.3 297.69,-39.3 303.69,-33.3 309.69,-33.3"/>
<text text-anchor="middle" x="360.19" y="-47.6" font-family="Arial" font-size="14.00" fill="#000000">ruby.dma_rni.cntrl</text>
</g>
<!-- system.ruby.dma_rni.cntrl&#45;&#45;system.ruby.network.routers16 -->
<g id="edge52" class="edge">
<title>system.ruby.dma_rni.cntrl&#45;&#45;system.ruby.network.routers16</title>
<path fill="none" stroke="#381526" d="M339.83,-77.76C333.79,-85.61 327.17,-94.21 321.14,-102.05"/>
<polygon fill="#381526" stroke="#381526" points="342.82,-79.61 346.15,-69.55 337.27,-75.34 342.82,-79.61"/>
<polygon fill="#381526" stroke="#381526" points="318.2,-100.13 314.87,-110.19 323.75,-104.4 318.2,-100.13"/>
</g>
<!-- system.ruby.io_rni.cntrl -->
<g id="node37" class="node">
<title>system.ruby.io_rni.cntrl</title>
<path fill="#e5bcd0" stroke="#000000" d="M214.92,-358.15C214.92,-358.15 298.92,-358.15 298.92,-358.15 304.92,-358.15 310.92,-364.15 310.92,-370.15 310.92,-370.15 310.92,-382.15 310.92,-382.15 310.92,-388.15 304.92,-394.15 298.92,-394.15 298.92,-394.15 214.92,-394.15 214.92,-394.15 208.92,-394.15 202.92,-388.15 202.92,-382.15 202.92,-382.15 202.92,-370.15 202.92,-370.15 202.92,-364.15 208.92,-358.15 214.92,-358.15"/>
<text text-anchor="middle" x="256.92" y="-372.45" font-family="Arial" font-size="14.00" fill="#000000">ruby.io_rni.cntrl</text>
</g>
<!-- system.ruby.io_rni.cntrl&#45;&#45;system.ruby.network.routers17 -->
<g id="edge53" class="edge">
<title>system.ruby.io_rni.cntrl&#45;&#45;system.ruby.network.routers17</title>
<path fill="none" stroke="#381526" d="M255.79,-347.65C255.28,-334.83 254.68,-319.74 254.17,-306.94"/>
<polygon fill="#381526" stroke="#381526" points="252.29,-347.94 256.19,-357.79 259.29,-347.66 252.29,-347.94"/>
<polygon fill="#381526" stroke="#381526" points="257.66,-306.67 253.77,-296.82 250.67,-306.95 257.66,-306.67"/>
</g>
</g>
</svg>
